:SAMPLES-PER-SECOND 30
:FRAME-RANGE 1-668
:FULLY-SPECIFIED
:DEGREES
502
root  -15.1565 38.704 20.5998 -173.172 -12.4674 -177.089
RightUpLeg  -18.1171 5.62839 -4.31273
RightLeg  22.8899 3.99548 1.63229
RightFoot  -14.2514 0.145029 9.5056
RightToes  5.38607e-012 1.2921e-014 -6.02303e-014
Spine  -1.00255 -0.742983 3.13489
Spine1  7.32598 0.240778 -4.05319
HEad  11.9524 -11.2084 -3.10529
LeftShoulder1  1.04948 -0.651603 -20.3262
LeftArm  -3.1803 10.6252 -26.4245
LeftForeArm  22.2698 2.98096 -11.2606
LeftHand  -0.00387485 2.94653 -0.632032
RightShoulder  1.3335 4.19101 10.6064
RightArm  -7.02781 39.6597 32.4253
RightForeArm  61.9911 60.5148 14.1155
RightHand  0.676009 -11.1657 -14.1544
LeftUpLeg  -24.0253 -5.81734 11.0148
LeftLeg  39.7681 6.07491 5.77441
LeftFoot  -12.322 0.0215682 -6.09621
LeftToes  -6.11857e-011 5.00151e-011 -2.22593e-011
503
root  -14.8822 38.6825 21.0895 -173.037 -15.5369 -176.689
RightUpLeg  -18.8915 4.65321 -3.60195
RightLeg  23.0676 2.17013 0.794426
RightFoot  -13.6839 0.101084 9.47641
RightToes  5.38607e-012 1.2921e-014 -6.02303e-014
Spine  -1.04323 -0.906295 3.15315
Spine1  7.41571 -0.0893307 -3.34597
HEad  11.1435 -12.6222 -2.02902
LeftShoulder1  1.06828 -0.776836 -19.9486
LeftArm  -3.38379 10.528 -25.565
LeftForeArm  19.8792 3.81298 -11.1371
LeftHand  -0.00245072 2.84709 -0.615842
RightShoulder  1.36632 4.1519 11.201
RightArm  -5.06854 40.2891 34.4456
RightForeArm  63.1827 57.1275 11.9954
RightHand  0.803875 -11.6615 -15.3457
LeftUpLeg  -22.7649 -5.17934 11.5478
LeftLeg  40.5734 7.63425 7.33266
LeftFoot  -13.0692 -0.0053725 -5.54331
LeftToes  -6.11857e-011 5.00151e-011 -2.22593e-011
504
root  -14.6527 38.6728 21.5939 -172.802 -18.3864 -176.523
RightUpLeg  -19.7831 3.89032 -3.32251
RightLeg  23.204 0.36856 -0.046641
RightFoot  -13.0062 0.0509208 9.57422
RightToes  5.38607e-012 1.2921e-014 -6.02303e-014
Spine  -0.876656 -1.01548 2.73678
Spine1  7.45294 -0.307453 -2.8517
HEad  9.81994 -14.2132 -0.666983
LeftShoulder1  1.11601 -1.07863 -19.1841
LeftArm  -3.97359 10.4503 -25.0102
LeftForeArm  17.8759 4.78949 -10.8631
LeftHand  -0.000350697 2.82953 -0.705398
RightShoulder  1.39511 4.04535 11.9304
RightArm  -4.34835 40.5816 36.6428
RightForeArm  63.0468 52.8807 9.96647
RightHand  0.918901 -11.6124 -17.4808
LeftUpLeg  -21.5019 -4.63957 12.5037
LeftLeg  40.0565 9.49075 8.82794
LeftFoot  -13.574 -0.00893124 -4.62957
LeftToes  -6.11857e-011 5.00151e-011 -2.22593e-011
505
root  -14.4749 38.6903 22.1197 -172.516 -21.2556 -176.489
RightUpLeg  -20.5928 2.45754 -3.22555
RightLeg  23.1538 -1.04396 -0.709396
RightFoot  -12.0946 -0.0185462 9.67914
RightToes  5.38607e-012 1.2921e-014 -6.02303e-014
Spine  -0.531758 -1.1253 1.9608
Spine1  7.47035 -0.563733 -2.21187
HEad  8.25634 -15.7011 0.582383
LeftShoulder1  1.17861 -1.45523 -18.4325
LeftArm  -4.17094 10.2221 -24.2015
LeftForeArm  15.8056 5.53991 -10.7393
LeftHand  0.00820384 2.82143 -1.10068
RightShoulder  1.40516 3.87576 12.5794
RightArm  -4.0238 40.6707 38.4448
RightForeArm  63.26 48.332 8.18992
RightHand  1.09632 -11.9485 -19.5834
LeftUpLeg  -20.2732 -3.90487 13.7544
LeftLeg  37.9588 11.565 9.88753
LeftFoot  -13.9988 0.00565191 -3.37272
LeftToes  -6.11857e-011 5.00151e-011 -2.22593e-011
506
root  -14.369 38.7141 22.6571 -172.191 -24.1606 -176.379
RightUpLeg  -21.226 1.16608 -3.24744
RightLeg  22.6776 -2.58428 -1.40374
RightFoot  -11.1074 -0.0964406 10.1614
RightToes  5.38607e-012 1.2921e-014 -6.02303e-014
Spine  -0.225755 -1.25682 1.41748
Spine1  7.45453 -0.778298 -1.90333
HEad  7.16831 -16.8506 1.52175
LeftShoulder1  1.24082 -1.81344 -17.875
LeftArm  -4.5027 9.50235 -23.0837
LeftForeArm  14.5821 6.65353 -10.5618
LeftHand  0.0154755 2.80482 -1.42648
RightShoulder  1.42106 3.7529 13.2036
RightArm  -3.89079 40.504 39.6838
RightForeArm  63.2692 43.6089 6.6674
RightHand  1.32096 -12.1776 -22.539
LeftUpLeg  -19.3016 -3.18297 15.3532
LeftLeg  34.7188 13.9277 10.5135
LeftFoot  -13.6116 0.0416499 -2.017
LeftToes  -6.11857e-011 5.00151e-011 -2.22593e-011
507
root  -14.3593 38.7375 23.2314 -171.675 -26.7809 -176.432
RightUpLeg  -21.957 -0.390585 -3.60327
RightLeg  22.1114 -3.61284 -1.83004
RightFoot  -10.0813 -0.185074 10.5553
RightToes  5.38607e-012 1.2921e-014 -6.02303e-014
Spine  0.0227267 -1.32579 0.879039
Spine1  7.43438 -0.868643 -1.83519
HEad  6.49241 -17.8478 2.32315
LeftShoulder1  1.24609 -1.96804 -17.2135
LeftArm  -4.50734 8.76079 -22.1513
LeftForeArm  13.4359 7.32793 -10.5625
LeftHand  0.0171735 2.85219 -1.54916
RightShoulder  1.43838 3.72396 13.5676
RightArm  -4.64489 39.9631 40.2935
RightForeArm  62.617 39.2536 5.48763
RightHand  1.53545 -12.5372 -24.6911
LeftUpLeg  -18.8006 -2.63141 16.8187
LeftLeg  31.3993 16.6505 11.0189
LeftFoot  -12.8944 0.0672858 -0.743366
LeftToes  -6.11857e-011 5.00151e-011 -2.22593e-011
508
root  -14.4505 38.7281 23.835 -171.239 -28.9641 -176.554
RightUpLeg  -22.6375 -1.94524 -4.20531
RightLeg  21.7078 -4.27432 -2.08731
RightFoot  -9.17616 -0.274837 11.1991
RightToes  5.38607e-012 1.2921e-014 -6.02303e-014
Spine  0.425609 -1.27817 0.37058
Spine1  7.38433 -0.793853 -1.9155
HEad  5.9058 -18.6631 3.02286
LeftShoulder1  1.24392 -2.05093 -16.7723
LeftArm  -4.74191 8.18304 -21.1138
LeftForeArm  12.4348 7.62377 -10.4612
LeftHand  0.0155498 2.99339 -1.49724
RightShoulder  1.44356 3.67968 13.7919
RightArm  -6.24145 39.4619 40.237
RightForeArm  62.236 34.8391 4.41524
RightHand  1.56713 -12.1743 -26.4242
LeftUpLeg  -18.5413 -2.18736 18.1101
LeftLeg  28.3072 18.2042 10.6601
LeftFoot  -11.4639 0.0695387 0.651467
LeftToes  -6.11857e-011 5.00151e-011 -2.22593e-011
509
root  -14.6564 38.6927 24.481 -170.916 -31.1459 -176.598
RightUpLeg  -23.0783 -3.69243 -4.93199
RightLeg  21.2055 -4.73964 -2.23995
RightFoot  -8.35276 -0.372804 12.0642
RightToes  5.38607e-012 1.2921e-014 -6.02303e-014
Spine  0.868833 -1.28366 0.0614001
Spine1  7.30164 -0.786463 -1.9647
HEad  5.65073 -19.351 3.55495
LeftShoulder1  1.23617 -2.06536 -16.5474
LeftArm  -4.63496 7.67039 -19.9143
LeftForeArm  11.156 7.63034 -10.5162
LeftHand  0.0130812 3.11508 -1.59888
RightShoulder  1.45705 3.71124 13.9027
RightArm  -8.3224 38.5156 39.3827
RightForeArm  61.5803 31.3497 3.65475
RightHand  1.67154 -12.2808 -27.6449
LeftUpLeg  -18.548 -2.40137 19.2669
LeftLeg  25.1326 18.103 9.35612
LeftFoot  -8.95445 0.0188737 1.6788
LeftToes  -6.11857e-011 5.00151e-011 -2.22593e-011
510
root  -14.9801 38.627 25.183 -170.515 -33.2062 -176.559
RightUpLeg  -23.547 -5.16495 -5.84308
RightLeg  20.6442 -5.38058 -2.44947
RightFoot  -7.49545 -0.496553 13.2098
RightToes  5.38607e-012 1.2921e-014 -6.02303e-014
Spine  1.28141 -1.25553 0.02172
Spine1  6.95071 -0.731592 -2.0867
HEad  5.88975 -20.3169 3.98397
LeftShoulder1  1.2016 -1.92101 -16.5186
LeftArm  -5.00006 7.13614 -18.9227
LeftForeArm  10.9233 7.60591 -10.3661
LeftHand  0.00899998 3.23674 -1.49746
RightShoulder  1.44724 3.61818 14.0518
RightArm  -10.137 37.6329 38.0102
RightForeArm  60.515 27.5298 2.89144
RightHand  1.72045 -12.1166 -29.0382
LeftUpLeg  -18.9969 -3.20771 20.1349
LeftLeg  22.2166 17.0029 7.80255
LeftFoot  -4.33191 -0.0472313 1.19764
LeftToes  -6.11857e-011 5.00151e-011 -2.22593e-011
